<?xml version="1.0" encoding="UTF-8"?>
<!-- Created with Inkscape (http://www.inkscape.org/) -->
<svg width="257.02" height="35.642" version="1.1" viewBox="0 0 257.02 35.642" xmlns="http://www.w3.org/2000/svg">
 <g transform="translate(-11.658 -.49193)" fill="#099">
  <g transform="matrix(.92614 0 0 1.0817 -89.259 166.26)" stroke-width=".99908" style="shape-inside:url(#rect3851);white-space:pre" aria-label="Cafe Favoritos">
   <path d="m175.84-138.79h-8.2226v-5.5078q0-2.4024-0.27344-2.9883-0.25391-0.60547-1.1523-0.60547-1.0156 0-1.2891 0.72265-0.27343 0.72266-0.27343 3.125v14.688q0 2.3047 0.27343 3.0078 0.27344 0.70312 1.2305 0.70312 0.91797 0 1.1914-0.70312 0.29297-0.70313 0.29297-3.3008v-3.9648h8.2226v1.2305q0 4.9023-0.70312 6.9531-0.6836 2.0508-3.0664 3.5938-2.3633 1.543-5.8398 1.543-3.6133 0-5.957-1.3086t-3.1055-3.6133q-0.76172-2.3242-0.76172-6.9727v-9.2383q0-3.418 0.23437-5.1172 0.23438-1.7188 1.3867-3.3008 1.1719-1.582 3.2227-2.4805 2.0703-0.91797 4.7461-0.91797 3.6328 0 5.9961 1.4062t3.1055 3.5156q0.74218 2.0898 0.74218 6.5234z"/>
   <path d="m185.64-136.84h-7.4023v-1.7383q0-3.0078 0.68359-4.6289 0.70313-1.6406 2.793-2.8906t5.4297-1.25q4.0039 0 6.0352 1.4258 2.0312 1.4062 2.4414 3.4766 0.41016 2.0508 0.41016 8.4766v13.008h-7.6758v-2.3047q-0.72265 1.3867-1.875 2.0898-1.1328 0.68359-2.7148 0.68359-2.0703 0-3.8086-1.1523-1.7188-1.1719-1.7188-5.0977v-2.1289q0-2.9102 0.91797-3.9648 0.91796-1.0547 4.5508-2.4609 3.8867-1.5234 4.1602-2.0508 0.27344-0.52734 0.27344-2.1484 0-2.0312-0.3125-2.6367-0.29297-0.625-0.99609-0.625-0.80078 0-0.9961 0.52734-0.19531 0.50781-0.19531 2.6758zm2.5 3.5547q-1.8945 1.3867-2.207 2.3242-0.29297 0.9375-0.29297 2.6953 0 2.0117 0.25391 2.5977 0.27343 0.58594 1.0547 0.58594 0.74219 0 0.95704-0.44922 0.23437-0.46875 0.23437-2.4219z"/>
   <path d="m208.81-152.58v4.0039q-2.4414 0-2.8906 0.23438-0.42969 0.21484-0.42969 1.2695v0.82031h3.3203v4.1016h-1.875v21.191h-7.8906v-21.191h-1.6211v-4.1016h1.6211q0-2.5586 0.17578-3.418 0.17578-0.85937 0.85937-1.5234 0.70313-0.6836 1.9531-1.0352t3.8867-0.35156z"/>
   <path d="m228.18-133.46h-10.215v5.6055q0 1.7578 0.25391 2.2656 0.2539 0.50782 0.97656 0.50782 0.89844 0 1.1914-0.66407 0.3125-0.68359 0.3125-2.6172v-3.418h7.4805v1.9141q0 2.4023-0.3125 3.6914-0.29297 1.2891-1.4062 2.7539-1.1133 1.4648-2.832 2.207-1.6992 0.72266-4.2773 0.72266-2.5 0-4.4141-0.72266-1.9141-0.72265-2.9883-1.9726-1.0547-1.2695-1.4648-2.7734-0.41016-1.5234-0.41016-4.4141v-7.5586q0-3.3984 0.91797-5.3516 0.91797-1.9726 3.0078-3.0078 2.0898-1.0547 4.8047-1.0547 3.3203 0 5.4688 1.2695 2.168 1.25 3.0274 3.3398 0.8789 2.0703 0.8789 5.8398zm-7.9102-4.2188v-1.8945q0-2.0117-0.21485-2.5977-0.21484-0.58593-0.8789-0.58593-0.82032 0-1.0156 0.50781-0.19531 0.48828-0.19531 2.6758v1.8945z"/>
   <g fill="#000">
    <path d="m238.05-152.58h13.926v6.3281h-5.7031v5.9961h5.0781v6.0156h-5.0781v13.281h-8.2227z"/>
    <path d="m260.8-136.84h-7.4023v-1.7383q0-3.0078 0.68359-4.6289 0.70313-1.6406 2.793-2.8906t5.4297-1.25q4.0039 0 6.0352 1.4258 2.0312 1.4062 2.4414 3.4766 0.41016 2.0508 0.41016 8.4766v13.008h-7.6758v-2.3047q-0.72265 1.3867-1.875 2.0898-1.1328 0.68359-2.7148 0.68359-2.0703 0-3.8086-1.1523-1.7188-1.1719-1.7188-5.0977v-2.1289q0-2.9102 0.91797-3.9648 0.91796-1.0547 4.5508-2.4609 3.8867-1.5234 4.1602-2.0508 0.27344-0.52734 0.27344-2.1484 0-2.0312-0.3125-2.6367-0.29297-0.625-0.99609-0.625-0.80078 0-0.9961 0.52734-0.19531 0.50781-0.19531 2.6758zm2.5 3.5547q-1.8945 1.3867-2.207 2.3242-0.29297 0.9375-0.29297 2.6953 0 2.0117 0.25391 2.5977 0.27343 0.58594 1.0547 0.58594 0.74219 0 0.95704-0.44922 0.23437-0.46875 0.23437-2.4219z"/>
    <path d="m290.21-146.87-3.6914 25.918h-10.293l-3.9648-25.918h7.0508l2.207 18.906q0.2539-2.0703 0.85937-10.156 0.35156-4.5117 0.78125-8.75z"/>
    <path d="m309.26-137.77v6.3477q0 3.4961-0.35156 5.1367-0.35156 1.6211-1.5039 3.0469-1.1523 1.4062-2.9688 2.0898-1.7969 0.66406-4.1406 0.66406-2.6172 0-4.4336-0.56641-1.8164-0.58593-2.832-1.7383-0.99609-1.1719-1.4258-2.8125-0.42969-1.6602-0.42969-4.9609v-6.6406q0-3.6133 0.78125-5.6445t2.8125-3.2617 5.1953-1.2305q2.6562 0 4.5508 0.80078 1.9141 0.78125 2.9492 2.0508 1.0352 1.2695 1.4062 2.6172 0.39062 1.3477 0.39062 4.1016zm-7.8906-1.9531q0-1.9922-0.21485-2.5-0.21484-0.52734-0.91797-0.52734-0.70312 0-0.9375 0.52734-0.23437 0.50781-0.23437 2.5v11.699q0 1.8359 0.23437 2.4023 0.23438 0.54688 0.91797 0.54688 0.70313 0 0.91797-0.50782 0.23438-0.50781 0.23438-2.1875z"/>
    <path d="m319.77-146.87-0.3125 3.3984q1.7188-3.6523 4.9805-3.8672v9.1211q-2.168 0-3.1836 0.58593-1.0156 0.58594-1.25 1.6406-0.23438 1.0352-0.23438 4.8047v10.234h-7.8906v-25.918z"/>
    <path d="m334.3-152.58v4.1211h-8.125v-4.1211zm0 5.7031v25.918h-8.125v-25.918z"/>
    <path d="m345.43-150.33v4.082h2.1289v4.1016h-2.1289v13.867q0 2.5586 0.2539 2.8516 0.27344 0.29297 2.207 0.29297v4.1797h-3.1836q-2.6953 0-3.8477-0.21484-1.1523-0.23438-2.0312-1.0352-0.8789-0.82031-1.0938-1.8555-0.21484-1.0547-0.21484-4.9219v-13.164h-1.6992v-4.1016h1.6992v-4.082z"/>
    <path d="m367.15-137.77v6.3477q0 3.4961-0.35157 5.1367-0.35156 1.6211-1.5039 3.0469-1.1524 1.4062-2.9688 2.0898-1.7969 0.66406-4.1406 0.66406-2.6172 0-4.4336-0.56641-1.8164-0.58593-2.832-1.7383-0.9961-1.1719-1.4258-2.8125-0.42969-1.6602-0.42969-4.9609v-6.6406q0-3.6133 0.78125-5.6445t2.8125-3.2617 5.1953-1.2305q2.6562 0 4.5508 0.80078 1.9141 0.78125 2.9492 2.0508 1.0352 1.2695 1.4062 2.6172 0.39063 1.3477 0.39063 4.1016zm-7.8906-1.9531q0-1.9922-0.21484-2.5-0.21485-0.52734-0.91797-0.52734-0.70313 0-0.9375 0.52734-0.23438 0.50781-0.23438 2.5v11.699q0 1.8359 0.23438 2.4023 0.23437 0.54688 0.91797 0.54688 0.70312 0 0.91797-0.50782 0.23437-0.50781 0.23437-2.1875z"/>
    <path d="m385.88-138.59h-6.9922v-1.4062q0-1.7969-0.21485-2.2656-0.19531-0.48828-1.0156-0.48828-0.66406 0-0.99609 0.44921-0.33204 0.42969-0.33204 1.3086 0 1.1914 0.15625 1.7578 0.17579 0.54688 0.9961 1.2109 0.83984 0.66406 3.418 1.9336 3.4375 1.6797 4.5117 3.1641 1.0742 1.4844 1.0742 4.3164 0 3.1641-0.82031 4.7852-0.82031 1.6016-2.7539 2.4805-1.9141 0.85937-4.6289 0.85937-3.0078 0-5.1562-0.9375-2.1289-0.9375-2.9297-2.5391t-0.80078-4.8438v-1.25h6.9922v1.6406q0 2.0898 0.2539 2.7148 0.27344 0.625 1.0547 0.625 0.83985 0 1.1719-0.41016 0.33203-0.42969 0.33203-1.7773 0-1.8555-0.42969-2.3242-0.44922-0.46875-4.5898-2.7734-3.4766-1.9531-4.2383-3.5352-0.76172-1.6016-0.76172-3.7891 0-3.1055 0.82031-4.5703 0.82031-1.4844 2.7734-2.2852 1.9726-0.80078 4.5703-0.80078 2.5781 0 4.375 0.66406 1.8164 0.64454 2.7734 1.7188 0.97656 1.0742 1.1719 1.9922 0.21485 0.91797 0.21485 2.8711z"/>
   </g>
  </g>
  <path d="m42.062 35.732h2.9584c1.497 0 2.7267-1.0312 2.9049-2.332l2.9406-26.144h-8.9108v-6.425h-3.5108v6.425h-8.8573l0.53465 3.7122c3.0475 0.74561 5.8989 2.0941 7.6098 3.5853 2.5663 2.2527 4.3306 4.5847 4.3306 8.3921v12.786m-30.404-1.5864v-1.5864h26.786v1.5864c0 0.85666-0.80197 1.5864-1.8356 1.5864h-23.168c-0.98018 0-1.7822-0.72975-1.7822-1.5864m26.786-11.105c0-12.691-26.786-12.691-26.786 0h26.786m-26.786 3.1728h26.732v3.1728h-26.732z"/>
 </g>
</svg>
